<svg width="390" height="810" viewBox="0 0 390 810" fill="none" xmlns="http://www.w3.org/2000/svg">
<rect x="100.518" y="230.664" width="112.487" height="276.968" transform="rotate(-30 100.518 230.664)" stroke="white" stroke-width="5"/>
<rect x="215.951" y="164.019" width="112.487" height="276.968" transform="rotate(-30 215.951 164.019)" stroke="white" stroke-width="5"/>
<rect x="-19.5224" y="299.969" width="112.487" height="276.968" transform="rotate(-30 -19.5224 299.969)" stroke="white" stroke-width="5"/>
<rect x="-171.584" y="36.5874" width="112.487" height="276.968" transform="rotate(-30 -171.584 36.5874)" stroke="white" stroke-width="5"/>
<rect x="-51.584" y="-32.6946" width="112.487" height="276.968" transform="rotate(-30 -51.584 -32.6946)" stroke="white" stroke-width="5"/>
<rect x="63.8877" y="-99.3623" width="112.487" height="276.968" transform="rotate(-30 63.8877 -99.3623)" stroke="white" stroke-width="5"/>
<rect x="255.059" y="496.682" width="112.487" height="276.968" transform="rotate(-30 255.059 496.682)" stroke="white" stroke-width="5"/>
<rect x="370.53" y="430.015" width="112.487" height="276.968" transform="rotate(-30 370.53 430.015)" stroke="white" stroke-width="5"/>
<rect x="330.726" y="98.898" width="112.487" height="276.968" transform="rotate(-30 330.726 98.898)" stroke="white" stroke-width="5"/>
<rect x="179.961" y="-160.801" width="112.487" height="276.968" transform="rotate(-30 179.961 -160.801)" stroke="white" stroke-width="5"/>
</svg>
