<svg width="62" height="62" viewBox="0 0 62 62" fill="none" xmlns="http://www.w3.org/2000/svg">
<g clip-path="url(#clip0_269_204)">
<path fill-rule="evenodd" clip-rule="evenodd" d="M30.9998 5.1665C35.5232 5.1665 39.2406 6.69584 41.7671 8.16059C45.1875 10.142 46.4998 13.8698 46.4998 17.1971V21.6146C47.5254 22.2682 48.4812 22.9063 49.3285 23.4953L50.7881 24.526L51.0465 24.712C51.7982 25.2597 52.5474 25.8151 53.2759 26.3963C54.3764 27.2747 54.5675 28.928 53.684 30.0311C53.256 30.5656 52.6333 30.9083 51.9527 30.9839C51.2721 31.0594 50.5893 30.8617 50.0545 30.4341C48.8986 29.5239 47.713 28.652 46.4998 27.8198V45.4303C46.4998 48.4546 45.2984 51.3549 43.16 53.4934C41.0215 55.6318 38.1212 56.8332 35.097 56.8332H26.9026C23.8784 56.8332 20.978 55.6318 18.8396 53.4934C16.7012 51.3549 15.4998 48.4546 15.4998 45.4303V27.8198C14.2934 28.6568 13.0973 29.517 11.9477 30.4341C11.4126 30.8623 10.7293 31.0604 10.0482 30.9848C9.367 30.9093 8.74375 30.5662 8.31554 30.0311C7.88733 29.496 7.68922 28.8127 7.76479 28.1315C7.84037 27.4504 8.18344 26.8271 8.71854 26.3989C9.45221 25.8203 10.1988 25.2623 10.9531 24.712L12.0536 23.9241C13.0456 23.2266 14.2185 22.4309 15.4998 21.6172V17.1971C15.4998 13.8672 16.8121 10.142 20.2325 8.16059C22.759 6.69584 26.479 5.1665 30.9998 5.1665ZM41.3331 29.486C39.7599 31.0593 38.7498 33.0123 38.7498 35.2804V43.9165C38.7498 45.2868 38.2054 46.601 37.2365 47.5699C36.2676 48.5388 34.9534 49.0832 33.5831 49.0832H28.4165C27.0462 49.0832 25.732 48.5388 24.7631 47.5699C23.7941 46.601 23.2498 45.2868 23.2498 43.9165V35.2804C23.2498 33.0123 22.2397 31.0593 20.6665 29.486V45.4303C20.6665 46.2493 20.8278 47.0602 21.1412 47.8168C21.4546 48.5734 21.9139 49.2609 22.493 49.84C23.0721 50.4191 23.7595 50.8784 24.5161 51.1918C25.2728 51.5052 26.0837 51.6665 26.9026 51.6665H35.097C35.9159 51.6665 36.7268 51.5052 37.4834 51.1918C38.24 50.8784 38.9275 50.4191 39.5066 49.84C40.0857 49.2609 40.545 48.5734 40.8584 47.8168C41.1718 47.0602 41.3331 46.2493 41.3331 45.4303V29.486ZM30.9998 10.3332C27.6492 10.3332 24.8256 11.4698 22.8235 12.6323C21.5009 13.3944 20.6665 15.0426 20.6665 17.1945V18.6412C21.599 18.1633 22.5497 17.7138 23.4978 17.3133C25.921 16.2955 28.556 15.4998 30.9998 15.4998C33.4436 15.4998 36.0786 16.2955 38.5018 17.3159C39.4499 17.7163 40.4005 18.1658 41.3331 18.6412V17.1945C41.3331 15.0452 40.4987 13.397 39.176 12.6298C37.174 11.4698 34.3504 10.3332 30.9998 10.3332Z" fill="#979797"/>
</g>
<defs>
<clipPath id="clip0_269_204">
<rect width="62" height="62" fill="white"/>
</clipPath>
</defs>
</svg>
